<?xml version="1.0" encoding="UTF-8" standalone="no"?>
<!-- Created with Inkscape (http://www.inkscape.org/) -->

<svg
   xmlns:dc="http://purl.org/dc/elements/1.1/"
   xmlns:cc="http://creativecommons.org/ns#"
   xmlns:rdf="http://www.w3.org/1999/02/22-rdf-syntax-ns#"
   xmlns:svg="http://www.w3.org/2000/svg"
   xmlns="http://www.w3.org/2000/svg"
   xmlns:sodipodi="http://sodipodi.sourceforge.net/DTD/sodipodi-0.dtd"
   xmlns:inkscape="http://www.inkscape.org/namespaces/inkscape"
   id="svg3355"
   version="1.1"
   inkscape:version="0.91 r13725"
   xml:space="preserve"
   width="353.00079"
   height="143.06265"
   viewBox="0 0 353.00079 143.06265"
   sodipodi:docname="brodul_logo.svg"
   inkscape:export-filename="/home/brodul/Pictures/logo/brodul_logo.png"
   inkscape:export-xdpi="270.26999"
   inkscape:export-ydpi="270.26999"><metadata
     id="metadata3361"><rdf:RDF><cc:Work
         rdf:about=""><dc:format>image/svg+xml</dc:format><dc:type
           rdf:resource="http://purl.org/dc/dcmitype/StillImage" /><dc:title></dc:title></cc:Work></rdf:RDF></metadata><defs
     id="defs3359" /><sodipodi:namedview
     pagecolor="#ffffff"
     bordercolor="#666666"
     borderopacity="1"
     objecttolerance="10"
     gridtolerance="10"
     guidetolerance="10"
     inkscape:pageopacity="0"
     inkscape:pageshadow="2"
     inkscape:window-width="1362"
     inkscape:window-height="729"
     id="namedview3357"
     showgrid="false"
     inkscape:zoom="1.1121375"
     inkscape:cx="46.965217"
     inkscape:cy="-32.286159"
     inkscape:window-x="1680"
     inkscape:window-y="18"
     inkscape:window-maximized="0"
     inkscape:current-layer="g3363"
     fit-margin-top="10"
     fit-margin-left="10"
     fit-margin-right="10"
     fit-margin-bottom="10" /><g
     id="g3363"
     inkscape:groupmode="layer"
     inkscape:label="brodul_AC04_R0A"
     transform="matrix(1.25,0,0,-1.25,-140.96937,1193.3435)"><text
       transform="matrix(1,0,0,-1,113.11909,861.85841)"
       style="font-variant:normal;font-weight:normal;font-size:84.30275726px;font-family:Zap;-inkscape-font-specification:Zap;writing-mode:lr-tb;fill:#173a79;fill-opacity:1;fill-rule:nonzero;stroke:none"
       id="text3365"
       inkscape:export-xdpi="270.26962"
       inkscape:export-ydpi="270.26962"><tspan
         x="0 43.331619 70.139893"
         y="0"
         sodipodi:role="line"
         id="tspan3367">br </tspan></text>
<text
       transform="matrix(1,0,0,-1,286.09021,861.85841)"
       style="font-variant:normal;font-weight:normal;font-size:84.30275726px;font-family:Zap;-inkscape-font-specification:Zap;writing-mode:lr-tb;fill:#173a79;fill-opacity:1;fill-rule:nonzero;stroke:none"
       id="text3369"
       inkscape:export-xdpi="270.26962"
       inkscape:export-ydpi="270.26962"><tspan
         x="0 43.331619 85.567299"
         y="0"
         sodipodi:role="line"
         id="tspan3371">dul</tspan></text>
<path
       inkscape:export-ydpi="270.26962"
       inkscape:export-xdpi="270.26962"
       inkscape:connector-curvature="0"
       id="path3379"
       style="fill:#173a79;fill-opacity:1;fill-rule:nonzero;stroke:none"
       d="m 254.60332,910.47852 c 0,0 0.61719,1.99023 1.64697,0.89257 1.0293,-1.09863 0.96143,-1.30566 0.96143,-1.30566 l 0.54883,0.55078 c 0,0 1.16699,-0.96191 1.09863,-1.16797 -0.0688,-0.20605 -0.1377,-0.48144 -0.1377,-0.48144 0,0 1.71631,1.16797 2.05957,0 0.34327,-1.16602 0.1377,-1.64649 0.1377,-1.64649 l 0.82275,0.54883 1.7168,-1.23437 c 0,0 0.34326,0.34179 0,-0.20801 -0.34326,-0.54785 -0.75537,-1.09766 -0.75537,-1.09766 0,0 1.37353,0.61817 2.26611,1.99121 0.89209,1.37305 0.82373,2.40137 0.82373,2.40137 l -0.34375,0.48145 c 0,0 -1.16748,1.09863 -1.78515,1.30371 -0.61719,0.20605 -4.39258,7.62109 -4.66748,8.37695 -0.27491,0.75391 -8.03223,12.7666 -21.96729,10.70703 0,0 2.05957,-0.75391 3.08936,-1.92187 0,0 -12.35694,-2.81446 -15.23926,-8.5127 0,0 2.47119,2.05957 5.354,1.58008 0,0 -8.2373,-5.35449 -7.41357,-13.86719 0,0 1.23584,1.92285 3.02051,2.33399 0,0 -5.21729,-11.53223 10.29638,-21.14356 15.51465,-9.61035 22.14712,-13.60579 21.59829,-22.25618 -0.5498,-8.64941 -10.6561,-15.55904 -29.35142,-8.66372 0,0 12.5588,-9.80771 22.99337,-7.20029 10.43408,2.61035 15.92578,19.58699 13.59228,26.72468 -2.33496,7.13965 -13.45556,15.23926 -16.88769,18.53418 -3.43262,3.2959 -12.90625,11.94531 -5.4917,19.08496 0,0 0,-2.05859 3.02051,-2.05859 3.0205,0 6.04101,-1.64844 6.45263,-3.57031 0.41211,-1.92188 -1.78466,-1.51075 -1.78466,-1.51075 0,0 4.53027,-2.05859 5.49121,-3.1582 l 0.96142,-1.09668 3.56983,0.13672 c 0,0 -2.33399,1.09766 -3.15723,1.64649 -0.82422,0.5498 0.96045,0.5498 0.96045,0.5498 l -2.7461,1.23535 -0.96093,1.09961 z"
       sodipodi:nodetypes="ccccccccccccccccccccccccccccccscccccccccc" /><path
       inkscape:export-ydpi="270.26962"
       inkscape:export-xdpi="270.26962"
       inkscape:connector-curvature="0"
       id="path3381"
       style="fill:#173a79;fill-opacity:1;fill-rule:nonzero;stroke:none"
       d="m 255.76934,922.69629 c 0,0 -3.98145,14.41797 1.64795,21.69336 0,0 -7.00147,-6.86621 -4.39307,-18.81055" /><path
       inkscape:export-ydpi="270.26962"
       inkscape:export-xdpi="270.26962"
       inkscape:connector-curvature="0"
       id="path3383"
       style="fill:#173a79;fill-opacity:1;fill-rule:nonzero;stroke:none"
       d="m 252.04082,924.94629 c 0,0 -5.75439,13.80566 -1.08008,21.72851 0,0 -6.08789,-7.68652 -2.00537,-19.21093" /><path
       inkscape:export-ydpi="270.26962"
       inkscape:export-xdpi="270.26962"
       inkscape:connector-curvature="0"
       id="path3385"
       style="fill:#173a79;fill-opacity:1;fill-rule:nonzero;stroke:none"
       d="m 212.25322,859.94748 c 0,0 -8.52099,16.94645 5.89893,23.25967 14.42041,6.31221 37.0332,-5.64882 31.13428,-13.9562 l 2.9497,-0.33171 c 0,0 -8.19336,-6.6459 -8.19336,-8.64007 0,0 0.65528,7.97569 -1.31103,9.96886 l 4.26074,-0.33269 c 0,0 0.32715,7.64299 -8.19385,9.63616 -8.5205,1.99416 -18.74794,2.14371 -20.97363,-3.98734 -2.5203,-6.9426 7.98332,-24.41135 32.05782,-19.0466 0,0 -10.75606,-4.21307 -11.73946,-4.21307 -0.98291,0 -14.0918,-0.3327 -15.0752,0.33268 -0.98291,0.6644 -4.3141,2.81431 -4.3141,2.81431"
       sodipodi:nodetypes="ccccccccscscc" /><path
       inkscape:export-ydpi="270.26962"
       inkscape:export-xdpi="270.26962"
       inkscape:connector-curvature="0"
       id="path3387"
       style="fill:#173a79;fill-opacity:1;fill-rule:nonzero;stroke:none"
       d="m 259.98809,941.37891 c -1.0669,-2.17286 -1.8003,-4.39551 -2.30127,-6.42188 14.58398,-6.52637 24.77636,-21.16601 24.77636,-38.14941 0,-23.03809 -18.74316,-41.78125 -41.78125,-41.78125 -23.03808,0 -41.78125,18.74316 -41.78125,41.78125 0,23.03808 18.74317,41.78125 41.78125,41.78125 0.78516,0 1.56446,-0.0264 2.33936,-0.0693 -0.51416,2.51465 -0.6416,5.125 -0.65967,6.82813 -0.55859,0.0195 -1.11621,0.043 -1.67969,0.043 -26.78857,0 -48.583,-21.79395 -48.583,-48.58301 0,-26.78809 21.79443,-48.58301 48.583,-48.58301 26.78858,0 48.58301,21.79492 48.58301,48.58301 0,19.93066 -12.06787,37.08886 -29.27685,44.57129 z" /></g></svg>